<?xml version="1.0" encoding="UTF-8" standalone="no"?>
<!-- Created with Inkscape (http://www.inkscape.org/) -->
<svg xmlns:rdf="http://www.w3.org/1999/02/22-rdf-syntax-ns#" xmlns="http://www.w3.org/2000/svg" version="1.1" xmlns:cc="http://creativecommons.org/ns#" xmlns:dc="http://purl.org/dc/elements/1.1/" viewBox="0 0 134.56 32">
 <metadata>
  <rdf:RDF>
   <cc:Work rdf:about="">
    <dc:format>image/svg+xml</dc:format>
    <dc:type rdf:resource="http://purl.org/dc/dcmitype/StillImage"/>
    <dc:title/>
   </cc:Work>
  </rdf:RDF>
 </metadata>
 <g transform="translate(38.708423,-147.79075)">
  <g transform="translate(-399.11098,-387.3799)">
   <rect fill-rule="nonzero" height="32" width="32" y="535.17" x="360.4" fill="#e2eea2"/>
   <g style="writing-mode:lr-tb;letter-spacing:0px;text-anchor:start;word-spacing:0px;text-align:start;" font-weight="normal" font-size="40px" font-stretch="normal" font-variant="normal" font-style="normal" font-family="Open Sans" line-height="125%" fill="#333">
    <path d="m415.1,547.69,0-1.696,5.44,0,0,7.376c-0.00001,1.3013-0.33067,2.2773-0.992,2.928-0.66134,0.65067-1.5093,0.976-2.544,0.976-1.3013,0-2.4107-0.45867-3.328-1.376l1.072-1.488c0.72533,0.69334,1.4347,1.04,2.128,1.04,0.49066,0,0.90666-0.16533,1.248-0.496,0.352-0.33066,0.528-0.82666,0.528-1.488v-5.776h-3.552"/>
    <path d="m430.06,557.18-1.632,0,0-1.136c-0.704,0.84267-1.648,1.264-2.832,1.264-0.88533,0-1.6213-0.25067-2.208-0.752-0.576-0.50133-0.864-1.168-0.864-2,0-0.84266,0.30933-1.472,0.928-1.888s1.456-0.62399,2.512-0.624h2.32v-0.32c0-1.1307-0.62934-1.696-1.888-1.696-0.78933,0.00001-1.6107,0.28801-2.464,0.864l-0.8-1.12c1.0347-0.82133,2.208-1.232,3.52-1.232,1.0027,0.00001,1.8187,0.25601,2.448,0.768,0.63999,0.50134,0.95999,1.296,0.96,2.384v5.488m-1.792-3.168,0-0.72-2.016,0c-1.2907,0-1.936,0.40534-1.936,1.216,0,0.416,0.16,0.736,0.48,0.96,0.32,0.21333,0.76267,0.32,1.328,0.32,0.576,0,1.0773-0.16,1.504-0.48,0.42666-0.32,0.64-0.752,0.64-1.296"/>
    <path d="m434.74,557.18-3.424-8.512,1.856,0,2.592,6.432,2.592-6.432,1.856,0-3.424,8.512-2.048,0"/>
    <path d="m448.41,557.18-1.632,0,0-1.136c-0.704,0.84267-1.648,1.264-2.832,1.264-0.88533,0-1.6213-0.25067-2.208-0.752-0.576-0.50133-0.864-1.168-0.864-2,0-0.84266,0.30933-1.472,0.928-1.888s1.456-0.62399,2.512-0.624h2.32v-0.32c0-1.1307-0.62934-1.696-1.888-1.696-0.78933,0.00001-1.6107,0.28801-2.464,0.864l-0.8-1.12c1.0347-0.82133,2.208-1.232,3.52-1.232,1.0027,0.00001,1.8187,0.25601,2.448,0.768,0.63999,0.50134,0.95999,1.296,0.96,2.384v5.488m-1.792-3.168,0-0.72-2.016,0c-1.2907,0-1.936,0.40534-1.936,1.216,0,0.416,0.16,0.736,0.48,0.96,0.32,0.21333,0.76267,0.32,1.328,0.32,0.576,0,1.0773-0.16,1.504-0.48,0.42666-0.32,0.64-0.752,0.64-1.296"/>
    <path d="m456.98,554.63c-0.00001,0.81067-0.29334,1.4613-0.88,1.952-0.58667,0.48-1.3387,0.72-2.256,0.72-0.61867,0-1.264-0.112-1.936-0.336-0.66133-0.224-1.248-0.53867-1.76-0.944l0.864-1.392c0.992,0.74667,1.952,1.12,2.88,1.12,0.40533,0,0.72533-0.0907,0.96-0.272,0.23466-0.192,0.352-0.432,0.352-0.72,0-0.42666-0.56534-0.81066-1.696-1.152-0.0853-0.032-0.14933-0.0533-0.192-0.064-1.7707-0.48-2.656-1.28-2.656-2.4,0-0.78933,0.304-1.4187,0.912-1.888,0.61867-0.47999,1.4187-0.71999,2.4-0.72,0.98133,0.00001,1.9093,0.28801,2.784,0.864l-0.672,1.328c-0.69334-0.45866-1.4453-0.68799-2.256-0.688-0.42667,0.00001-0.77333,0.08-1.04,0.24-0.26667,0.14934-0.4,0.37867-0.4,0.688,0,0.27734,0.13867,0.48001,0.416,0.608,0.192,0.096,0.45867,0.18667,0.8,0.272,0.352,0.0853,0.66133,0.17067,0.928,0.256,0.26666,0.0853,0.52266,0.18134,0.768,0.288,0.256,0.10667,0.528,0.256,0.816,0.448,0.576,0.384,0.86399,0.98134,0.864,1.792"/>
    <path d="m462.79,557.31c-1.184,0-2.2027-0.4-3.056-1.2-0.85333-0.81066-1.28-1.8667-1.28-3.168s0.44267-2.3573,1.328-3.168c0.896-0.82133,1.984-1.232,3.264-1.232,1.28,0.00001,2.3627,0.44267,3.248,1.328l-1.056,1.296c-0.736-0.63999-1.4773-0.95999-2.224-0.96-0.74667,0.00001-1.3973,0.25067-1.952,0.752-0.544,0.49067-0.816,1.1307-0.816,1.92,0,0.77867,0.272,1.44,0.816,1.984s1.2107,0.816,2,0.816c0.8,0,1.552-0.36266,2.256-1.088l1.056,1.152c-1.0347,1.0453-2.2293,1.568-3.584,1.568"/>
    <path d="m472.69,550.35c-0.88534,0.00001-1.552,0.28801-2,0.864-0.448,0.57601-0.672,1.3493-0.672,2.32v3.648h-1.792v-8.512h1.792v1.712c0.288-0.53333,0.67733-0.97066,1.168-1.312,0.50133-0.34132,1.0293-0.51732,1.584-0.528l0.016,1.808c-0.032,0.00001-0.064,0.00001-0.096,0"/>
    <path d="m476.37,557.18-1.792,0,0-8.512,1.792,0,0,8.512m-1.68-10.208c-0.224-0.22399-0.336-0.49066-0.336-0.8,0-0.30932,0.112-0.57599,0.336-0.8,0.224-0.22399,0.49067-0.33599,0.8-0.336,0.30933,0.00001,0.576,0.11201,0.8,0.336,0.224,0.22401,0.336,0.49068,0.336,0.8,0,0.30934-0.112,0.57601-0.336,0.8-0.224,0.22401-0.49067,0.33601-0.8,0.336-0.30933,0.00001-0.576-0.11199-0.8-0.336"/>
    <path d="m483.51,548.54c1.1413,0.00001,2.1173,0.39467,2.928,1.184,0.81066,0.78934,1.216,1.84,1.216,3.152-0.00001,1.312-0.40534,2.3787-1.216,3.2-0.80001,0.82133-1.7387,1.232-2.816,1.232-1.0667,0-2.0267-0.46933-2.88-1.408v4.384h-1.792v-11.616h1.792v1.488c0.704-1.0773,1.6267-1.616,2.768-1.616m-2.8,4.4c0,0.81067,0.24533,1.4773,0.736,2,0.49066,0.512,1.088,0.768,1.792,0.768s1.3173-0.256,1.84-0.768c0.52266-0.512,0.78399-1.1733,0.784-1.984-0.00001-0.82133-0.25601-1.4987-0.768-2.032-0.512-0.54399-1.1253-0.81599-1.84-0.816-0.71467,0.00001-1.3173,0.27201-1.808,0.816-0.49067,0.53334-0.736,1.2053-0.736,2.016"/>
    <path d="m491.91,550.11,0,4.32c0,0.40534,0.10667,0.73067,0.32,0.976,0.21333,0.23467,0.512,0.352,0.896,0.352s0.752-0.18667,1.104-0.56l0.736,1.264c-0.62934,0.56533-1.328,0.848-2.096,0.848-0.75733,0-1.408-0.26133-1.952-0.784-0.53333-0.53333-0.8-1.248-0.8-2.144v-4.272h-1.072v-1.44h1.072v-2.672h1.792v2.672h2.24v1.44h-2.24"/>
   </g>
  </g>
 </g>
</svg>
