<?xml version="1.0" encoding="UTF-8" standalone="no"?>
<!-- Created with Inkscape (http://www.inkscape.org/) -->
<svg xmlns:rdf="http://www.w3.org/1999/02/22-rdf-syntax-ns#" xmlns="http://www.w3.org/2000/svg" version="1.1" xmlns:cc="http://creativecommons.org/ns#" xmlns:dc="http://purl.org/dc/elements/1.1/" viewBox="0 0 127.23 32">
 <metadata>
  <rdf:RDF>
   <cc:Work rdf:about="">
    <dc:format>image/svg+xml</dc:format>
    <dc:type rdf:resource="http://purl.org/dc/dcmitype/StillImage"/>
    <dc:title/>
   </cc:Work>
  </rdf:RDF>
 </metadata>
 <g transform="translate(-7.8112274,106.49496)">
  <g transform="translate(-352.59133,-641.66561)">
   <rect fill-rule="nonzero" height="32" width="32" y="535.17" x="360.4" fill="#a2eeac"/>
   <g style="writing-mode:lr-tb;letter-spacing:0px;text-anchor:start;word-spacing:0px;text-align:start;" font-weight="normal" font-size="40px" font-stretch="normal" font-variant="normal" font-style="normal" font-family="Open Sans" line-height="125%" fill="#333">
    <path d="m418.22,554.04,2.496-8.048,1.696,0,2.496,8.048,2.816-8.048,2.032,0-3.904,11.184-1.872,0-2.352-7.664-0.128,0-2.352,7.664-1.872,0-3.904-11.184,2.032,0,2.816,8.048"/>
    <path d="m433.05,557.18-1.792,0,0-8.512,1.792,0,0,8.512m-1.68-10.208c-0.224-0.22399-0.336-0.49066-0.336-0.8,0-0.30932,0.112-0.57599,0.336-0.8,0.224-0.22399,0.49067-0.33599,0.8-0.336,0.30933,0.00001,0.576,0.11201,0.8,0.336,0.224,0.22401,0.336,0.49068,0.336,0.8,0,0.30934-0.112,0.57601-0.336,0.8-0.224,0.22401-0.49067,0.33601-0.8,0.336-0.30933,0.00001-0.576-0.11199-0.8-0.336"/>
    <path d="m437.43,552.57,0,4.608-1.792,0,0-8.512,1.792,0,0,1.552c0.288-0.52266,0.68267-0.93333,1.184-1.232,0.512-0.29866,1.0613-0.44799,1.648-0.448,0.96,0.00001,1.7333,0.29334,2.32,0.88,0.59733,0.58667,0.89599,1.4347,0.896,2.544v5.216h-1.792v-4.672c-0.00001-1.568-0.65067-2.352-1.952-2.352-0.61867,0.00001-1.1573,0.20801-1.616,0.624-0.45867,0.40534-0.688,1.0027-0.688,1.792"/>
    <path d="m449.45,557.31c-1.0773,0-2.016-0.40533-2.816-1.216-0.8-0.81066-1.2-1.8773-1.2-3.2s0.41067-2.3787,1.232-3.168c0.82133-0.78933,1.7973-1.184,2.928-1.184,1.1413,0.00001,2.0587,0.48001,2.752,1.44v-4.672h1.792v11.872h-1.792v-1.28c-0.66134,0.93867-1.6267,1.408-2.896,1.408m-2.224-4.336c0,0.81067,0.26133,1.472,0.784,1.984s1.136,0.768,1.84,0.768,1.3013-0.256,1.792-0.768c0.49066-0.52266,0.73599-1.1893,0.736-2-0.00001-0.81066-0.24534-1.488-0.736-2.032-0.49067-0.54399-1.0933-0.81599-1.808-0.816-0.71467,0.00001-1.328,0.27201-1.84,0.816-0.512,0.54401-0.768,1.2267-0.768,2.048"/>
    <path d="m458.71,554.94c0.512,0.512,1.1573,0.768,1.936,0.768,0.77866,0,1.4187-0.256,1.92-0.768,0.51199-0.52266,0.76799-1.1947,0.768-2.016-0.00001-0.82133-0.25601-1.488-0.768-2-0.50134-0.52266-1.1413-0.78399-1.92-0.784-0.77867,0.00001-1.424,0.26134-1.936,0.784-0.50133,0.51201-0.752,1.1787-0.752,2,0,0.82134,0.25067,1.4933,0.752,2.016m5.136,1.104c-0.85334,0.84267-1.92,1.264-3.2,1.264s-2.3467-0.42133-3.2-1.264c-0.85333-0.85333-1.28-1.8933-1.28-3.12s0.42667-2.2613,1.28-3.104c0.85333-0.85333,1.92-1.28,3.2-1.28,1.28,0.00001,2.3467,0.42667,3.2,1.28,0.85333,0.84267,1.28,1.8773,1.28,3.104-0.00001,1.2267-0.42667,2.2667-1.28,3.12"/>
    <path d="m471.03,557.18-2.048,0-2.944-8.512,1.856,0,2.112,6.432,2.112-6.432,1.856,0,2.112,6.432,2.112-6.432,1.856,0-2.944,8.512-2.048,0-2.016-5.824-2.016,5.824"/>
    <path d="m487.64,554.63c-0.00001,0.81067-0.29334,1.4613-0.88,1.952-0.58667,0.48-1.3387,0.72-2.256,0.72-0.61867,0-1.264-0.112-1.936-0.336-0.66133-0.224-1.248-0.53867-1.76-0.944l0.864-1.392c0.992,0.74667,1.952,1.12,2.88,1.12,0.40533,0,0.72533-0.0907,0.96-0.272,0.23466-0.192,0.352-0.432,0.352-0.72,0-0.42666-0.56534-0.81066-1.696-1.152-0.0853-0.032-0.14933-0.0533-0.192-0.064-1.7707-0.48-2.656-1.28-2.656-2.4,0-0.78933,0.304-1.4187,0.912-1.888,0.61867-0.47999,1.4187-0.71999,2.4-0.72,0.98133,0.00001,1.9093,0.28801,2.784,0.864l-0.672,1.328c-0.69334-0.45866-1.4453-0.68799-2.256-0.688-0.42667,0.00001-0.77333,0.08-1.04,0.24-0.26667,0.14934-0.4,0.37867-0.4,0.688,0,0.27734,0.13867,0.48001,0.416,0.608,0.192,0.096,0.45867,0.18667,0.8,0.272,0.352,0.0853,0.66133,0.17067,0.928,0.256,0.26666,0.0853,0.52266,0.18134,0.768,0.288,0.256,0.10667,0.528,0.256,0.816,0.448,0.576,0.384,0.86399,0.98134,0.864,1.792"/>
   </g>
  </g>
 </g>
</svg>
