<?xml version="1.0" encoding="UTF-8" standalone="no"?>
<!-- Created with Inkscape (http://www.inkscape.org/) -->
<svg xmlns:rdf="http://www.w3.org/1999/02/22-rdf-syntax-ns#" xmlns="http://www.w3.org/2000/svg" version="1.1" xmlns:cc="http://creativecommons.org/ns#" xmlns:dc="http://purl.org/dc/elements/1.1/" viewBox="0 0 109.95 32">
 <metadata>
  <rdf:RDF>
   <cc:Work rdf:about="">
    <dc:format>image/svg+xml</dc:format>
    <dc:type rdf:resource="http://purl.org/dc/dcmitype/StillImage"/>
    <dc:title/>
   </cc:Work>
  </rdf:RDF>
 </metadata>
 <g transform="translate(63.546153,-73.505044)">
  <g transform="translate(-423.94871,-461.66561)">
   <rect fill-rule="nonzero" height="32" width="32" y="535.17" x="360.4" fill="#a2bdee"/>
   <g style="writing-mode:lr-tb;letter-spacing:0px;text-anchor:start;word-spacing:0px;text-align:start;" font-weight="normal" font-size="40px" font-stretch="normal" font-variant="normal" font-style="normal" font-family="Open Sans" line-height="125%" fill="#333">
    <path d="m418.58,545.99c2.0053,0.00001,3.5467,0.49068,4.624,1.472,1.0773,0.97068,1.616,2.3253,1.616,4.064-0.00001,1.7387-0.52268,3.1147-1.568,4.128s-2.6453,1.52-4.8,1.52h-3.712v-11.184h3.84m4.336,5.584c-0.00001-2.56-1.4667-3.84-4.4-3.84h-1.888v7.664h2.096c1.3547,0,2.3893-0.32,3.104-0.96,0.72533-0.65066,1.088-1.6053,1.088-2.864"/>
    <path d="m428.96,554.94c0.512,0.512,1.1573,0.768,1.936,0.768,0.77866,0,1.4187-0.256,1.92-0.768,0.51199-0.52266,0.76799-1.1947,0.768-2.016-0.00001-0.82133-0.25601-1.488-0.768-2-0.50134-0.52266-1.1413-0.78399-1.92-0.784-0.77867,0.00001-1.424,0.26134-1.936,0.784-0.50133,0.51201-0.752,1.1787-0.752,2,0,0.82134,0.25067,1.4933,0.752,2.016m5.136,1.104c-0.85334,0.84267-1.92,1.264-3.2,1.264s-2.3467-0.42133-3.2-1.264c-0.85333-0.85333-1.28-1.8933-1.28-3.12s0.42667-2.2613,1.28-3.104c0.85333-0.85333,1.92-1.28,3.2-1.28,1.28,0.00001,2.3467,0.42667,3.2,1.28,0.85333,0.84267,1.28,1.8773,1.28,3.104-0.00001,1.2267-0.42667,2.2667-1.28,3.12"/>
    <path d="m441.19,557.31c-1.184,0-2.2027-0.4-3.056-1.2-0.85333-0.81066-1.28-1.8667-1.28-3.168s0.44267-2.3573,1.328-3.168c0.896-0.82133,1.984-1.232,3.264-1.232,1.28,0.00001,2.3627,0.44267,3.248,1.328l-1.056,1.296c-0.736-0.63999-1.4773-0.95999-2.224-0.96-0.74667,0.00001-1.3973,0.25067-1.952,0.752-0.544,0.49067-0.816,1.1307-0.816,1.92,0,0.77867,0.272,1.44,0.816,1.984s1.2107,0.816,2,0.816c0.8,0,1.552-0.36266,2.256-1.088l1.056,1.152c-1.0347,1.0453-2.2293,1.568-3.584,1.568"/>
    <path d="m448.43,557.18-1.792,0,0-11.872,1.792,0,0,6.976,3.456-3.616,2.304,0-3.232,3.376,3.472,5.136-2.176,0-2.528-3.728-1.296,1.312,0,2.416"/>
    <path d="m463.84,553.71-6.672,0c0.0427,0.61867,0.32533,1.12,0.848,1.504,0.52266,0.37333,1.12,0.56,1.792,0.56,1.0667,0,1.8773-0.336,2.432-1.008l1.024,1.12c-0.91734,0.94933-2.112,1.424-3.584,1.424-1.1947,0-2.2133-0.39467-3.056-1.184-0.832-0.8-1.248-1.8667-1.248-3.2,0-1.344,0.42667-2.4107,1.28-3.2,0.85333-0.78933,1.856-1.184,3.008-1.184,1.1627,0.00001,2.1493,0.35201,2.96,1.056,0.81066,0.69334,1.216,1.6533,1.216,2.88v1.232m-6.672-1.408,4.88,0c-0.00001-0.71466-0.22401-1.264-0.672-1.648-0.448-0.38399-1.0027-0.57599-1.664-0.576-0.65067,0.00001-1.2373,0.20267-1.76,0.608-0.52267,0.39467-0.784,0.93334-0.784,1.616"/>
    <path d="m470.26,550.35c-0.88534,0.00001-1.552,0.28801-2,0.864-0.448,0.57601-0.672,1.3493-0.672,2.32v3.648h-1.792v-8.512h1.792v1.712c0.288-0.53333,0.67733-0.97066,1.168-1.312,0.50133-0.34132,1.0293-0.51732,1.584-0.528l0.016,1.808c-0.032,0.00001-0.064,0.00001-0.096,0"/>
   </g>
  </g>
 </g>
</svg>
