<?xml version="1.0" encoding="UTF-8" standalone="no"?>
<!-- Created with Inkscape (http://www.inkscape.org/) -->
<svg xmlns:rdf="http://www.w3.org/1999/02/22-rdf-syntax-ns#" xmlns="http://www.w3.org/2000/svg" version="1.1" xmlns:cc="http://creativecommons.org/ns#" xmlns:dc="http://purl.org/dc/elements/1.1/" viewBox="0 0 73.883 32">
 <metadata>
  <rdf:RDF>
   <cc:Work rdf:about="">
    <dc:format>image/svg+xml</dc:format>
    <dc:type rdf:resource="http://purl.org/dc/dcmitype/StillImage"/>
    <dc:title/>
   </cc:Work>
  </rdf:RDF>
 </metadata>
 <g transform="translate(302.65592,-213.50504)">
  <g transform="translate(-663.77714,-270.55853)">
   <rect fill-rule="nonzero" height="32" width="32" y="484.06" x="361.12" fill="#a2e3ee"/>
   <g style="writing-mode:lr-tb;letter-spacing:0px;text-anchor:start;word-spacing:0px;text-align:start;" font-weight="normal" font-size="40px" font-stretch="normal" font-variant="normal" font-style="normal" font-family="Open Sans" line-height="125%" fill="#333">
    <path d="m422.48,501.23,1.888,0,0,3.824c-1.056,1.1627-2.5653,1.744-4.528,1.744-1.6533,0-3.04-0.544-4.16-1.632-1.1093-1.088-1.664-2.464-1.664-4.128s0.56533-3.0507,1.696-4.16c1.1413-1.1093,2.5173-1.664,4.128-1.664,1.6107,0.00001,2.9493,0.46934,4.016,1.408l-1.008,1.44c-0.43734-0.37333-0.88001-0.62933-1.328-0.768-0.43734-0.14933-0.94934-0.22399-1.536-0.224-1.1307,0.00001-2.08,0.368-2.848,1.104-0.768,0.72534-1.152,1.6853-1.152,2.88,0,1.184,0.37333,2.1387,1.12,2.864,0.74666,0.71466,1.648,1.072,2.704,1.072,1.0667,0,1.9573-0.22934,2.672-0.688v-3.072"/>
    <path d="m428.59,504.43c0.512,0.512,1.1573,0.768,1.936,0.768,0.77866,0,1.4187-0.256,1.92-0.768,0.51199-0.52267,0.76799-1.1947,0.768-2.016-0.00001-0.82133-0.25601-1.488-0.768-2-0.50134-0.52266-1.1413-0.784-1.92-0.784-0.77867,0-1.424,0.26134-1.936,0.784-0.50133,0.512-0.752,1.1787-0.752,2,0,0.82133,0.25067,1.4933,0.752,2.016m5.136,1.104c-0.85334,0.84266-1.92,1.264-3.2,1.264s-2.3467-0.42134-3.2-1.264c-0.85333-0.85334-1.28-1.8933-1.28-3.12s0.42667-2.2613,1.28-3.104c0.85333-0.85333,1.92-1.28,3.2-1.28s2.3467,0.42667,3.2,1.28c0.85333,0.84267,1.28,1.8773,1.28,3.104-0.00001,1.2267-0.42667,2.2667-1.28,3.12"/>
   </g>
  </g>
 </g>
</svg>
