<?xml version="1.0" encoding="UTF-8" standalone="no"?>
<!-- Created with Inkscape (http://www.inkscape.org/) -->
<svg xmlns:rdf="http://www.w3.org/1999/02/22-rdf-syntax-ns#" xmlns="http://www.w3.org/2000/svg" version="1.1" xmlns:cc="http://creativecommons.org/ns#" xmlns:dc="http://purl.org/dc/elements/1.1/" viewBox="0 0 159.99 13">
 <metadata>
  <rdf:RDF>
   <cc:Work rdf:about="">
    <dc:format>image/svg+xml</dc:format>
    <dc:type rdf:resource="http://purl.org/dc/dcmitype/StillImage"/>
    <dc:title/>
   </cc:Work>
  </rdf:RDF>
 </metadata>
 <g transform="translate(-336.44757,-491.39214)">
  <g transform="translate(-260.34735,316.78069)">
   <g style="writing-mode:lr-tb;letter-spacing:0px;text-anchor:start;word-spacing:0px;text-align:start;" font-weight="normal" font-size="40px" font-stretch="normal" font-variant="normal" font-style="normal" font-family="Open Sans" line-height="125%">
    <path fill="#8a8a8a" d="m600.03,177.42c0.91405,0.00001,1.6229,0.31316,2.1265,0.93946,0.50781,0.62207,0.76171,1.5044,0.76172,2.647-0.00001,1.1426-0.25603,2.0312-0.76807,2.666-0.50781,0.63053-1.2145,0.9458-2.1201,0.9458-0.45281,0-0.86752-0.0825-1.2441-0.24756-0.3724-0.16927-0.68555-0.42741-0.93946-0.77442h-0.0762l-0.22217,0.89502h-0.75537v-9.877h1.0537v2.3994c0,0.53745-0.0169,1.0199-0.0508,1.4473h0.0508c0.49089-0.694,1.2188-1.041,2.1836-1.041m-0.15235,0.88233c-0.7194,0-1.2378,0.20736-1.5552,0.62207-0.31739,0.41049-0.47608,1.1045-0.47608,2.082,0,0.97754,0.16292,1.6779,0.48877,2.1011,0.32585,0.41895,0.84847,0.62842,1.5679,0.62842,0.64746,0,1.1299-0.23486,1.4473-0.70459,0.31738-0.47395,0.47607-1.1532,0.47607-2.0376,0-0.90559-0.15869-1.5806-0.47607-2.0249-0.31739-0.44433-0.80827-0.6665-1.4727-0.6665"/>
    <path fill="#8a8a8a" d="m605.66,177.53,1.1299,0,1.5234,3.9673c0.3343,0.9056,0.54166,1.5594,0.62207,1.9614h0.0508c0.055-0.21582,0.16927-0.58398,0.34277-1.1045,0.17773-0.52474,0.75325-2.1328,1.7266-4.8242h1.1299l-2.9898,7.9219c-0.29623,0.78287-0.64323,1.3372-1.041,1.6631-0.39355,0.33008-0.87809,0.49512-1.4536,0.49512-0.32161,0-0.639-0.036-0.95215-0.10791v-0.84424c0.23275,0.0508,0.493,0.0762,0.78076,0.0762,0.72364,0,1.2399-0.40625,1.5488-1.2188l0.38721-0.99023-2.8057-6.9951"/>
    <path fill="#333" d="m620.75,175.4,2.028,0,0,3.731,3.432-3.731,2.509,0-3.614,4.017c0.31199,0.43334,0.88832,1.2437,1.729,2.431,0.84065,1.1787,1.469,2.0583,1.885,2.639h-2.366l-2.665-3.588-0.91,1.014v2.574h-2.028v-9.087"/>
    <path fill="#333" d="m638.54,175.4,0,1.807-4.524,0,0,1.872,4.069,0,0,1.729-4.069,0,0,1.885,4.667,0,0,1.794-6.695,0,0-9.087,6.552,0"/>
    <path fill="#333" d="m649.87,178.42c-0.00001,1.456-0.57634,2.3963-1.729,2.821l2.301,3.25h-2.496l-2.015-2.899h-1.404v2.899h-2.028v-9.087h3.445c1.4127,0.00001,2.418,0.23835,3.016,0.715,0.60666,0.47668,0.90999,1.2437,0.91,2.301m-3.861,1.417c0.69333,0.00001,1.1657-0.11266,1.417-0.338,0.25133-0.22532,0.377-0.58066,0.377-1.066,0-0.49399-0.13-0.83199-0.39-1.014-0.26-0.18199-0.715-0.27299-1.365-0.273h-1.521v2.691h1.482"/>
    <path fill="#333" d="m657.61,177.16,0,7.332-2.028,0,0-7.332-2.574,0,0-1.755,7.176,0,0,1.755-2.574,0"/>
    <path fill="#333" d="m669.47,184.49-0.845-1.963-3.809,0-0.845,1.963-2.158,0,3.926-9.087,1.963,0,3.926,9.087-2.158,0m-2.743-6.383-1.144,2.639,2.275,0-1.131-2.639"/>
    <path fill="#333" d="m677.52,176.97c-0.33801,0.00001-0.60667,0.0823-0.806,0.247-0.19067,0.15601-0.28601,0.36834-0.286,0.637-0.00001,0.26001,0.11699,0.46801,0.351,0.624,0.24266,0.15601,0.79299,0.34234,1.651,0.559,0.86666,0.20801,1.5383,0.52434,2.015,0.949,0.47665,0.42467,0.71499,1.0443,0.715,1.859-0.00001,0.81467-0.30768,1.4777-0.923,1.989-0.60668,0.50267-1.4083,0.754-2.405,0.754-1.4387,0-2.7343-0.533-3.887-1.599l1.209-1.482c0.97933,0.85801,1.885,1.287,2.717,1.287,0.37266,0.00001,0.66299-0.078,0.871-0.234,0.21666-0.16466,0.32499-0.38133,0.325-0.65-0.00001-0.27733-0.11268-0.49399-0.338-0.65-0.22534-0.16466-0.67168-0.32933-1.339-0.494-1.0573-0.25133-1.833-0.57633-2.327-0.975-0.48534-0.40732-0.72801-1.04-0.728-1.898-0.00001-0.86666,0.30766-1.534,0.923-2.002,0.62399-0.46799,1.3997-0.70199,2.327-0.702,0.60666,0.00001,1.2133,0.10401,1.82,0.312,0.60666,0.20801,1.1353,0.50268,1.586,0.884l-1.027,1.482c-0.78868-0.59799-1.6033-0.89699-2.444-0.897"/>
    <path fill="#333" d="m690.33,175.4,2.028,0,0,3.731,3.432-3.731,2.509,0-3.614,4.017c0.312,0.43334,0.88833,1.2437,1.729,2.431,0.84066,1.1787,1.469,2.0583,1.885,2.639h-2.366l-2.665-3.588-0.91,1.014v2.574h-2.028v-9.087"/>
    <path fill="#333" d="m708.04,184.49-0.845-1.963-3.809,0-0.845,1.963-2.158,0,3.926-9.087,1.963,0,3.926,9.087-2.158,0m-2.743-6.383-1.144,2.639,2.275,0-1.131-2.639"/>
    <path fill="#333" d="m721.38,178.77-2.457,4.966-1.209,0-2.444-4.966,0,5.72-2.028,0,0-9.087,2.743,0,2.34,4.992,2.353-4.992,2.73,0,0,9.087-2.028,0,0-5.72"/>
    <path fill="#333" d="m730.84,175.4c1.3953,0.00001,2.4093,0.27301,3.042,0.819,0.64133,0.53734,0.962,1.3693,0.962,2.496,0,1.118-0.32934,1.937-0.98799,2.457-0.65001,0.52001-1.6467,0.78001-2.99,0.78h-1.209v2.535h-2.028v-9.087h3.211m0.182,4.797c0.676,0.00001,1.1353-0.13433,1.378-0.403,0.24267-0.27733,0.364-0.67599,0.36401-1.196-0.00001-0.52866-0.16034-0.90132-0.481-1.118-0.31201-0.22532-0.80168-0.33799-1.469-0.338h-1.157v3.055h1.365"/>
    <path fill="#333" d="m740.85,182.15c0.338,0.41601,0.793,0.62401,1.365,0.624,0.572,0.00001,1.0227-0.20799,1.352-0.624,0.338-0.42466,0.507-1.001,0.507-1.729v-5.018h2.028v5.083c-0.00001,1.3173-0.36401,2.3313-1.092,3.042-0.72801,0.702-1.6597,1.053-2.795,1.053s-2.0713-0.35533-2.808-1.066c-0.728-0.71066-1.092-1.7203-1.092-3.029v-5.083h2.028v5.018c0,0.72801,0.169,1.3043,0.507,1.729"/>
    <path fill="#333" d="m753.14,176.97c-0.338,0.00001-0.60667,0.0823-0.806,0.247-0.19067,0.15601-0.286,0.36834-0.286,0.637,0,0.26001,0.117,0.46801,0.351,0.624,0.24267,0.15601,0.793,0.34234,1.651,0.559,0.86666,0.20801,1.5383,0.52434,2.015,0.949,0.47666,0.42467,0.71499,1.0443,0.715,1.859-0.00001,0.81467-0.30767,1.4777-0.923,1.989-0.60667,0.50267-1.4083,0.754-2.405,0.754-1.4387,0-2.7343-0.533-3.887-1.599l1.209-1.482c0.97933,0.85801,1.885,1.287,2.717,1.287,0.37266,0.00001,0.663-0.078,0.871-0.234,0.21666-0.16466,0.325-0.38133,0.325-0.65,0-0.27733-0.11267-0.49399-0.338-0.65-0.22534-0.16466-0.67167-0.32933-1.339-0.494-1.0573-0.25133-1.833-0.57633-2.327-0.975-0.48533-0.40732-0.728-1.04-0.728-1.898,0-0.86666,0.30767-1.534,0.923-2.002,0.624-0.46799,1.3997-0.70199,2.327-0.702,0.60666,0.00001,1.2133,0.10401,1.82,0.312,0.60666,0.20801,1.1353,0.50268,1.586,0.884l-1.027,1.482c-0.78867-0.59799-1.6033-0.89699-2.444-0.897"/>
   </g>
  </g>
 </g>
</svg>
