<?xml version="1.0" encoding="UTF-8" standalone="no"?>
<!-- Created with Inkscape (http://www.inkscape.org/) -->
<svg xmlns:rdf="http://www.w3.org/1999/02/22-rdf-syntax-ns#" xmlns="http://www.w3.org/2000/svg" version="1.1" xmlns:cc="http://creativecommons.org/ns#" xmlns:dc="http://purl.org/dc/elements/1.1/" viewBox="0 0 111.38 32">
 <metadata>
  <rdf:RDF>
   <cc:Work rdf:about="">
    <dc:format>image/svg+xml</dc:format>
    <dc:type rdf:resource="http://purl.org/dc/dcmitype/StillImage"/>
    <dc:title/>
   </cc:Work>
  </rdf:RDF>
 </metadata>
 <g transform="translate(-455.7368,-359.21933)">
  <g transform="translate(94.615587,-124.84424)">
   <rect fill-rule="nonzero" height="32" width="32" y="484.06" x="361.12" fill="#eeaca2"/>
   <g style="writing-mode:lr-tb;letter-spacing:0px;text-anchor:start;word-spacing:0px;text-align:start;" font-weight="normal" font-size="40px" font-stretch="normal" font-variant="normal" font-style="normal" font-family="Open Sans" line-height="125%" fill="#333">
    <path d="m417.25,504.11c0.512,0.59733,1.2053,0.896,2.08,0.896,0.87466,0,1.568-0.29867,2.08-0.896,0.51199-0.59733,0.76799-1.408,0.768-2.432v-6.192h1.888v6.272c-0.00001,1.6107-0.44267,2.8533-1.328,3.728-0.88534,0.864-2.0213,1.296-3.408,1.296s-2.5227-0.432-3.408-1.296c-0.88533-0.87467-1.328-2.1173-1.328-3.728v-6.272h1.888v6.192c0,1.024,0.256,1.8347,0.768,2.432"/>
    <path d="m431.32,498.03c1.1413,0,2.1173,0.39467,2.928,1.184,0.81066,0.78934,1.216,1.84,1.216,3.152-0.00001,1.312-0.40534,2.3787-1.216,3.2-0.80001,0.82133-1.7387,1.232-2.816,1.232-1.0667,0-2.0267-0.46934-2.88-1.408v1.28h-1.792v-11.872h1.792v4.848c0.704-1.0773,1.6267-1.616,2.768-1.616m-2.8,4.4c0,0.81067,0.24533,1.4773,0.736,2,0.49066,0.512,1.088,0.768,1.792,0.768s1.3173-0.256,1.84-0.768c0.52266-0.512,0.78399-1.1733,0.784-1.984-0.00001-0.82133-0.25601-1.4987-0.768-2.032-0.512-0.544-1.1253-0.816-1.84-0.816-0.71467,0-1.3173,0.272-1.808,0.816-0.49067,0.53333-0.736,1.2053-0.736,2.016"/>
    <path d="m443.46,502.77,0-4.608,1.792,0,0,8.512-1.792,0,0-1.552c-0.288,0.52266-0.688,0.93333-1.2,1.232-0.50134,0.29866-1.0453,0.448-1.632,0.448-0.96,0-1.7387-0.29334-2.336-0.88-0.58667-0.58667-0.88-1.4347-0.88-2.544v-5.216h1.792v4.672c0,1.568,0.65067,2.352,1.952,2.352,0.61866,0,1.1573-0.20267,1.616-0.608,0.45866-0.416,0.68799-1.0187,0.688-1.808"/>
    <path d="m449.65,502.06,0,4.608-1.792,0,0-8.512,1.792,0,0,1.552c0.288-0.52266,0.68267-0.93333,1.184-1.232,0.512-0.29866,1.0613-0.448,1.648-0.448,0.96,0,1.7333,0.29334,2.32,0.88,0.59733,0.58667,0.89599,1.4347,0.896,2.544v5.216h-1.792v-4.672c-0.00001-1.568-0.65067-2.352-1.952-2.352-0.61867,0-1.1573,0.208-1.616,0.624-0.45867,0.40533-0.688,1.0027-0.688,1.792"/>
    <path d="m460.28,499.6,0,4.32c0,0.40533,0.10667,0.73066,0.32,0.976,0.21333,0.23466,0.512,0.352,0.896,0.352s0.752-0.18667,1.104-0.56l0.736,1.264c-0.62934,0.56533-1.328,0.848-2.096,0.848-0.75733,0-1.408-0.26134-1.952-0.784-0.53333-0.53334-0.8-1.248-0.8-2.144v-4.272h-1.072v-1.44h1.072v-2.672h1.792v2.672h2.24v1.44h-2.24"/>
    <path d="m470.71,502.77,0-4.608,1.792,0,0,8.512-1.792,0,0-1.552c-0.288,0.52266-0.688,0.93333-1.2,1.232-0.50134,0.29866-1.0453,0.448-1.632,0.448-0.96,0-1.7387-0.29334-2.336-0.88-0.58667-0.58667-0.88-1.4347-0.88-2.544v-5.216h1.792v4.672c0,1.568,0.65067,2.352,1.952,2.352,0.61866,0,1.1573-0.20267,1.616-0.608,0.45866-0.416,0.68799-1.0187,0.688-1.808"/>
   </g>
  </g>
 </g>
</svg>
