<?xml version="1.0" encoding="UTF-8" standalone="no"?>
<!-- Created with Inkscape (http://www.inkscape.org/) -->
<svg xmlns:rdf="http://www.w3.org/1999/02/22-rdf-syntax-ns#" xmlns="http://www.w3.org/2000/svg" version="1.1" xmlns:cc="http://creativecommons.org/ns#" xmlns:dc="http://purl.org/dc/elements/1.1/" viewBox="0 0 161.89 11.568">
 <metadata>
  <rdf:RDF>
   <cc:Work rdf:about="">
    <dc:format>image/svg+xml</dc:format>
    <dc:type rdf:resource="http://purl.org/dc/dcmitype/StillImage"/>
    <dc:title/>
   </cc:Work>
  </rdf:RDF>
 </metadata>
 <g fill="#333" transform="translate(335.23197,-15.149611)">
  <path d="m-335.23,15.406,2.496,0,0,4.592,4.224-4.592,3.088,0-4.448,4.944c0.38399,0.53334,1.0933,1.5307,2.128,2.992,1.0347,1.4507,1.808,2.5333,2.32,3.248h-2.912l-3.28-4.416-1.12,1.248v3.168h-2.496v-11.184" style="text-align:start;"/>
  <path d="m-313.79,15.406,0,2.224-5.568,0,0,2.304,5.008,0,0,2.128-5.008,0,0,2.32,5.744,0,0,2.208-8.24,0,0-11.184,8.064,0" style="text-align:start;"/>
  <path d="m-300.32,19.118c-0.00001,1.792-0.70934,2.9493-2.128,3.472l2.832,4h-3.072l-2.48-3.568h-1.728v3.568h-2.496v-11.184h4.24c1.7387,0.000011,2.976,0.29334,3.712,0.88,0.74666,0.58668,1.12,1.5307,1.12,2.832m-4.752,1.744c0.85333,0.000006,1.4347-0.13866,1.744-0.416,0.30932-0.27733,0.46399-0.71466,0.464-1.312-0.00001-0.60799-0.16001-1.024-0.48-1.248-0.32001-0.22399-0.88001-0.33599-1.68-0.336h-1.872v3.312h1.824" style="text-align:start;"/>
  <path d="m-291.25,17.566,0,9.024-2.496,0,0-9.024-3.168,0,0-2.16,8.832,0,0,2.16-3.168,0" style="text-align:start;"/>
  <path d="m-277.11,26.59-1.04-2.416-4.688,0-1.04,2.416-2.656,0,4.832-11.184,2.416,0,4.832,11.184-2.656,0m-3.376-7.856-1.408,3.248,2.8,0-1.392-3.248" style="text-align:start;"/>
  <path d="m-267.66,17.342c-0.41601,0.000009-0.74667,0.10134-0.992,0.304-0.23467,0.19201-0.352,0.45334-0.352,0.784,0,0.32001,0.144,0.57601,0.432,0.768,0.29866,0.19201,0.97599,0.42134,2.032,0.688,1.0667,0.25601,1.8933,0.64534,2.48,1.168,0.58666,0.52267,0.87999,1.2853,0.88,2.288-0.00001,1.0027-0.37868,1.8187-1.136,2.448-0.74668,0.61867-1.7333,0.928-2.96,0.928-1.7707,0-3.3653-0.656-4.784-1.968l1.488-1.824c1.2053,1.056,2.32,1.584,3.344,1.584,0.45866,0.000002,0.81599-0.096,1.072-0.288,0.26666-0.20266,0.39999-0.46933,0.4-0.8-0.00001-0.34133-0.13867-0.608-0.416-0.8-0.27734-0.20266-0.82667-0.40533-1.648-0.608-1.3013-0.30933-2.256-0.70933-2.864-1.2-0.59734-0.50133-0.896-1.28-0.896-2.336,0-1.0667,0.37866-1.888,1.136-2.464,0.768-0.57599,1.7227-0.86399,2.864-0.864,0.74666,0.000011,1.4933,0.12801,2.24,0.384,0.74666,0.25601,1.3973,0.61868,1.952,1.088l-1.264,1.824c-0.97067-0.73599-1.9733-1.104-3.008-1.104" style="text-align:start;"/>
  <path d="m-252.83,15.406,2.496,0,0,4.592,4.224-4.592,3.088,0-4.448,4.944c0.38399,0.53334,1.0933,1.5307,2.128,2.992,1.0347,1.4507,1.808,2.5333,2.32,3.248h-2.912l-3.28-4.416-1.12,1.248v3.168h-2.496v-11.184" style="text-align:start;"/>
  <path d="m-231.48,26.59-1.04-2.416-4.688,0-1.04,2.416-2.656,0,4.832-11.184,2.416,0,4.832,11.184-2.656,0m-3.376-7.856-1.408,3.248,2.8,0-1.392-3.248" style="text-align:start;"/>
  <path d="m-215.53,19.55-3.024,6.112-1.488,0-3.008-6.112,0,7.04-2.496,0,0-11.184,3.376,0,2.88,6.144,2.896-6.144,3.36,0,0,11.184-2.496,0,0-7.04" style="text-align:start;"/>
  <path d="m-204.34,15.406c1.7173,0.000011,2.9653,0.33601,3.744,1.008,0.78932,0.66134,1.184,1.6853,1.184,3.072-0.00001,1.376-0.40534,2.384-1.216,3.024-0.80001,0.64-2.0267,0.96-3.68,0.96h-1.488v3.12h-2.496v-11.184h3.952m0.224,5.904c0.83199,0.000005,1.3973-0.16533,1.696-0.496,0.29866-0.34133,0.44799-0.83199,0.448-1.472-0.00001-0.65066-0.19734-1.1093-0.592-1.376-0.38401-0.27732-0.98667-0.41599-1.808-0.416h-1.424v3.76h1.68" style="text-align:start;"/>
  <path d="m-192.49,23.71c0.41599,0.512,0.97599,0.768,1.68,0.768,0.70399,0.000002,1.2587-0.256,1.664-0.768,0.41599-0.52266,0.62399-1.232,0.624-2.128v-6.176h2.496v6.256c-0.00001,1.6213-0.44801,2.8693-1.344,3.744-0.89601,0.864-2.0427,1.296-3.44,1.296s-2.5493-0.43733-3.456-1.312c-0.896-0.87466-1.344-2.1173-1.344-3.728v-6.256h2.496v6.176c0,0.896,0.20799,1.6053,0.624,2.128" style="text-align:start;"/>
  <path d="m-177.82,17.342c-0.41601,0.000009-0.74667,0.10134-0.992,0.304-0.23467,0.19201-0.352,0.45334-0.352,0.784,0,0.32001,0.144,0.57601,0.432,0.768,0.29866,0.19201,0.97599,0.42134,2.032,0.688,1.0667,0.25601,1.8933,0.64534,2.48,1.168,0.58666,0.52267,0.87999,1.2853,0.88,2.288-0.00001,1.0027-0.37868,1.8187-1.136,2.448-0.74668,0.61867-1.7333,0.928-2.96,0.928-1.7707,0-3.3653-0.656-4.784-1.968l1.488-1.824c1.2053,1.056,2.32,1.584,3.344,1.584,0.45866,0.000002,0.81599-0.096,1.072-0.288,0.26666-0.20266,0.39999-0.46933,0.4-0.8-0.00001-0.34133-0.13867-0.608-0.416-0.8-0.27734-0.20266-0.82667-0.40533-1.648-0.608-1.3013-0.30933-2.256-0.70933-2.864-1.2-0.59734-0.50133-0.896-1.28-0.896-2.336,0-1.0667,0.37866-1.888,1.136-2.464,0.768-0.57599,1.7227-0.86399,2.864-0.864,0.74666,0.000011,1.4933,0.12801,2.24,0.384,0.74666,0.25601,1.3973,0.61868,1.952,1.088l-1.264,1.824c-0.97067-0.73599-1.9733-1.104-3.008-1.104" style="text-align:start;"/>
 </g>
</svg>
